<svg width="44" height="44" viewBox="0 0 44 44" fill="none" xmlns="http://www.w3.org/2000/svg">
<path fill-rule="evenodd" clip-rule="evenodd" d="M15.2915 16.2501C15.2915 12.5452 18.2949 9.54175 21.9998 9.54175C25.7047 9.54175 28.7082 12.5452 28.7082 16.2501C28.7082 19.955 25.7047 22.9584 21.9998 22.9584C18.2949 22.9584 15.2915 19.955 15.2915 16.2501ZM21.9998 13.3751C20.412 13.3751 19.1248 14.6623 19.1248 16.2501C19.1248 17.8379 20.412 19.1251 21.9998 19.1251C23.5876 19.1251 24.8748 17.8379 24.8748 16.2501C24.8748 14.6623 23.5876 13.3751 21.9998 13.3751Z" fill="#484848"/>
<path fill-rule="evenodd" clip-rule="evenodd" d="M0.916504 22.0001C0.916504 10.3561 10.3558 0.916748 21.9998 0.916748C33.6438 0.916748 43.0832 10.3561 43.0832 22.0001C43.0832 27.866 40.6876 33.1724 36.8214 36.9944C36.7644 37.0579 36.7032 37.1178 36.6381 37.1733C32.846 40.8326 27.6858 43.0834 21.9998 43.0834C16.3746 43.0834 11.2639 40.8804 7.48342 37.29C7.3295 37.1789 7.19311 37.0456 7.07862 36.8952C3.27096 33.0809 0.916504 27.8154 0.916504 22.0001ZM10.6279 34.9712C13.664 37.6351 17.6433 39.2501 21.9998 39.2501C26.3564 39.2501 30.3357 37.6351 33.3718 34.9711C32.7129 31.4082 29.5876 28.7084 25.8331 28.7084H18.1665C14.412 28.7084 11.2868 31.4082 10.6279 34.9712ZM36.3123 31.6321C34.5058 27.6467 30.4936 24.8751 25.8331 24.8751H18.1665C13.506 24.8751 9.49386 27.6467 7.68735 31.6321C5.83258 28.8815 4.74984 25.5672 4.74984 22.0001C4.74984 12.4732 12.4729 4.75008 21.9998 4.75008C31.5268 4.75008 39.2498 12.4732 39.2498 22.0001C39.2498 25.5672 38.1671 28.8815 36.3123 31.6321Z" fill="#484848"/>
</svg>
